<svg width="8" height="8" viewBox="0 0 8 8" fill="none" xmlns="http://www.w3.org/2000/svg">
<path d="M5.00004 2.66667L3.71343 3.96311C3.66461 4.0123 3.58547 4.0123 3.53665 3.96311L3.00004 3.4224M2.00004 0.666668H6.00004C6.36823 0.666668 6.66671 0.965145 6.66671 1.33333V6.25465C6.66671 6.75023 6.14517 7.07256 5.7019 6.85093L5.63152 6.81574C5.44383 6.7219 5.22292 6.7219 5.03523 6.81574L4.29818 7.18426C4.1105 7.27811 3.88958 7.27811 3.7019 7.18426L2.96485 6.81574C2.77716 6.7219 2.55625 6.7219 2.36857 6.81574L2.29818 6.85093C1.85492 7.07256 1.33337 6.75023 1.33337 6.25465V1.33333C1.33337 0.965145 1.63185 0.666668 2.00004 0.666668Z" stroke="#020101" stroke-linecap="round"/>
</svg>
